# xmcd
#
# Track frame offsets: 
#        150
#        11796
#        31380
#        45835
#        58185
#        70975
#        84544
#        97743
#        110102
#        119683
#        132212
#        144233
#        155613
#        166375
#        180887
#        191670
#        205160
#
# Disc length: 2899 seconds
#
# Revision: 0
# Processed by: cddbd v1.5.2PL0 Copyright (c) Steve Scherf et al.
# Submitted via: ExactAudioCopyFreeDBPlugin 1.0
#
DISCID=e60b5111
DTITLE=Philomena Begley - From Then Till Now - CD-2
DYEAR=2012
DGENRE=Country
TTITLE0=(I've Got) Texas In My Heart
TTITLE1=Queen Of The Silver Dollar
TTITLE2=Blanket On The Ground
TTITLE3=Today Tomorrow And Forever (With Dan O'Hara)
TTITLE4=Love Was Once Around The Dance Floor
TTITLE5=Light In The Window
TTITLE6=What's Wrong With The Way We're Doing It Now
TTITLE7=Down River Road
TTITLE8=Wait A Little Longer Plaese Jesus
TTITLE9=Route 65 To Nashville
TTITLE10=The Umbrella Song
TTITLE11=Jose Cuervo
TTITLE12=Tra La La La La Triangle
TTITLE13=Big Four Poster Bed
TTITLE14=Medals For Mother
TTITLE15=Blue Jean Country Queen
TTITLE16=The Way Old Friends Do
EXTD=
EXTT0=
EXTT1=
EXTT2=
EXTT3=
EXTT4=
EXTT5=
EXTT6=
EXTT7=
EXTT8=
EXTT9=
EXTT10=
EXTT11=
EXTT12=
EXTT13=
EXTT14=
EXTT15=
EXTT16=
PLAYORDER=
